<?xml version="1.0" encoding="UTF-8" standalone="no"?>
<!-- Created with Inkscape (http://www.inkscape.org/) -->

<svg
   xmlns:dc="http://purl.org/dc/elements/1.1/"
   xmlns:cc="http://creativecommons.org/ns#"
   xmlns:rdf="http://www.w3.org/1999/02/22-rdf-syntax-ns#"
   xmlns:svg="http://www.w3.org/2000/svg"
   xmlns="http://www.w3.org/2000/svg"
   xmlns:sodipodi="http://sodipodi.sourceforge.net/DTD/sodipodi-0.dtd"
   xmlns:inkscape="http://www.inkscape.org/namespaces/inkscape"
   width="744.09448819"
   height="1052.3622047"
   id="svg2"
   version="1.1"
   inkscape:version="0.48.4 r9939"
   sodipodi:docname="New document 1">
  <defs
     id="defs4" />
  <sodipodi:namedview
     id="base"
     pagecolor="#ffffff"
     bordercolor="#666666"
     borderopacity="1.0"
     inkscape:pageopacity="0.0"
     inkscape:pageshadow="2"
     inkscape:zoom="0.98994949"
     inkscape:cx="363.54975"
     inkscape:cy="475.48573"
     inkscape:document-units="px"
     inkscape:current-layer="layer1"
     showgrid="false"
     inkscape:snap-bbox="false"
     inkscape:snap-grids="true"
     inkscape:snap-to-guides="true"
     inkscape:window-width="944"
     inkscape:window-height="1001"
     inkscape:window-x="960"
     inkscape:window-y="0"
     inkscape:window-maximized="0" />
  <metadata
     id="metadata7">
    <rdf:RDF>
      <cc:Work
         rdf:about="">
        <dc:format>image/svg+xml</dc:format>
        <dc:type
           rdf:resource="http://purl.org/dc/dcmitype/StillImage" />
        <dc:title></dc:title>
      </cc:Work>
    </rdf:RDF>
  </metadata>
  <g
     inkscape:label="Layer 1"
     inkscape:groupmode="layer"
     id="layer1">
    <path
       style="fill:none;stroke:#000000;stroke-width:1px;stroke-linecap:butt;stroke-linejoin:miter;stroke-opacity:1"
       d="m 581.84787,459.40264 c 36.36549,81.82235 4.04061,158.59395 -3.03046,150.51273 -7.07107,-8.08123 -27.27412,-102.02541 3.03046,-150.51273 z"
       id="path3009"
       inkscape:connector-curvature="0" />
    <path
       style="fill:none;stroke:#000000;stroke-width:1px;stroke-linecap:butt;stroke-linejoin:miter;stroke-opacity:1"
       d="m 566.69558,498.79859 -154.55334,-3.03046 c 0,0 -6.06091,20.20305 -26.26396,17.17259 -20.20305,-3.03045 -25.25382,-20.20305 -25.25382,-20.20305 l -192.93913,16.16245 c 0,0 -26.26397,-93.94419 -52.52794,-92.93404 C 88.893424,416.97623 43.43656,602.8443 91.923882,596.78339 140.41121,590.72247 565.68543,568.49912 565.68543,568.49912 z"
       id="path3011"
       inkscape:connector-curvature="0"
       sodipodi:nodetypes="ccsccsscc" />
    <path
       style="fill:none;stroke:#000000;stroke-width:1px;stroke-linecap:butt;stroke-linejoin:miter;stroke-opacity:1"
       d="M 90.913729,550.31637 C 128.28937,504.8595 200.0102,539.20469 200.0102,539.20469 c 0,0 -50.50762,34.34519 -109.096471,11.11168 z"
       id="path3017"
       inkscape:connector-curvature="0" />
    <path
       style="fill:none;stroke:#000000;stroke-width:1px;stroke-linecap:butt;stroke-linejoin:miter;stroke-opacity:1"
       d="m 444.46712,432.12852 -28.28426,90.91374 28.28425,-4.04062 30.30459,-89.90358 z"
       id="path3021"
       inkscape:connector-curvature="0"
       sodipodi:nodetypes="ccccc" />
    <path
       style="fill:none;stroke:#000000;stroke-width:1px;stroke-linecap:butt;stroke-linejoin:miter;stroke-opacity:1"
       d="m 523.25901,426.06761 -18.18273,90.91372 8.08122,2.02031 c 5.43131,-17.96356 17.44001,-59.60877 20.20305,-90.91373 z"
       id="path3023"
       inkscape:connector-curvature="0"
       sodipodi:nodetypes="ccccc" />
    <path
       style="fill:none;stroke:#000000;stroke-width:1px;stroke-linecap:butt;stroke-linejoin:miter;stroke-opacity:1"
       d="m 412.14224,445.2605 c -69.14971,1.96428 -7.01995,-16.41768 11.11168,-22.22335 176.10912,-24.78906 204.80281,20.93908 -11.11168,22.22335 z"
       id="path3029"
       inkscape:connector-curvature="0"
       sodipodi:nodetypes="ccc" />
    <path
       style="fill:none;stroke:#000000;stroke-width:1px;stroke-linecap:butt;stroke-linejoin:miter;stroke-opacity:1"
       d="m 395.9798,525.06255 c 228.27443,-21.52711 201.59667,10.12986 5.05076,23.23351 -16.64723,-10.15252 -28.5658,-10.43147 -5.05076,-23.23351 z"
       id="path3033"
       inkscape:connector-curvature="0"
       sodipodi:nodetypes="ccc" />
    <path
       sodipodi:type="arc"
       style="fill:#c8b7b7"
       id="path3035"
       sodipodi:cx="387.89859"
       sodipodi:cy="487.68692"
       sodipodi:rx="13.131983"
       sodipodi:ry="13.131983"
       d="m 378.09668,478.94784 a 13.131983,13.131983 0 1 1 -2.35857,3.78208"
       sodipodi:start="3.8697304"
       sodipodi:end="9.8118461"
       sodipodi:open="true"
       transform="matrix(1.3461445,0,0,1.3076892,-140.83487,-145.00522)" />
  </g>
</svg>
